<svg xmlns="http://www.w3.org/2000/svg" xmlns:xlink="http://www.w3.org/1999/xlink" xmlns:svgjs="http://svgjs.dev/svgjs" version="1.1" viewBox="615.2 239.93 767.17 768.16"><g transform="matrix(1,0,0,1,-1.2121212121212466,0.504858299595071)"><svg xmlns="http://www.w3.org/2000/svg" xmlns:xlink="http://www.w3.org/1999/xlink" viewBox="0 0 396 247" data-background-color="#ffffff" preserveAspectRatio="xMidYMid meet" height="1247" width="2000"><g id="tight-bounds" transform="matrix(1,0,0,1,0.2400000000000091,-0.09999999999999432)"><svg viewBox="0 0 395.52 247.2" height="247.2" width="395.52"><g><svg/></g><g><svg viewBox="0 0 395.52 247.2" height="247.2" width="395.52"><g transform="matrix(1,0,0,1,121.78105796834123,99.701318359375)"><svg viewBox="0 0 151.95788406331752 47.79736328125" height="47.79736328125" width="151.95788406331752"><g><svg viewBox="0 0 151.95788406331752 47.79736328125" height="47.79736328125" width="151.95788406331752"><g><svg viewBox="0 0 151.95788406331752 47.79736328125" height="47.79736328125" width="151.95788406331752"><g id="textblocktransform"><svg viewBox="0 0 151.95788406331752 47.79736328125" height="47.79736328125" width="151.95788406331752" id="textblock"><g><svg viewBox="0 0 151.95788406331752 47.79736328125" height="47.79736328125" width="151.95788406331752"><g><svg><g/><g/></svg></g><g><svg><g><svg/></g><g/></svg></g><g id="text-0"><svg viewBox="0 0 151.95788406331752 47.79736328125" height="47.79736328125" width="151.95788406331752"><g transform="matrix(1,0,0,1,0,0)"><svg width="91.72353515625001" viewBox="1.95 -29.3 56.69 29.54" height="47.79736328125" data-palette-color="#94a6b8"><g class="wordmark-text-0" data-fill-palette-color="primary"><path d="M1.95 0L23.34 0 23.58-9.77 22.61-9.77 21.78-6.49Q20.61-2 17.87-1.37L17.87-1.37Q17.29-1.27 16.75-1.27L16.75-1.27 10.06-1.27 10.06-28.03 14.16-28.03 14.16-29.3 1.95-29.3 1.95-28.03 5.86-28.03 5.86-1.27 1.95-1.27 1.95 0ZM31.49-2.25L31.49-2.25Q31.49-3.86 30.03-4.54L30.03-4.54Q29.54-4.79 29-4.79L29-4.79Q27.39-4.79 26.76-3.32L26.76-3.32Q26.51-2.78 26.51-2.25L26.51-2.25Q26.51-0.68 27.93 0L27.93 0Q28.46 0.24 29 0.24L29 0.24Q30.56 0.24 31.25-1.17L31.25-1.17Q31.49-1.71 31.49-2.25ZM57.66-20.51L58.64-20.51 58.39-29.3 35.88-29.3 35.88-28.03 39.79-28.03 39.79-1.27 35.88-1.27 35.88 0 58.39 0 58.64-8.79 57.66-8.79 56.98-6.49Q55.76-2.34 53.36-1.51L53.36-1.51Q52.63-1.27 51.8-1.27L51.8-1.27 43.99-1.27 43.99-14.4 54.05-14.4 54.05-15.82 43.99-15.82 43.99-28.03 51.8-28.03Q55.32-28.03 56.83-23.29L56.83-23.29Q56.93-23 56.98-22.8L56.98-22.8 57.66-20.51Z" fill="#94a6b8" data-fill-palette-color="primary"/></g></svg></g><g><svg xmlns="http://www.w3.org/2000/svg" xmlns:xlink="http://www.w3.org/1999/xlink" version="1.1" x="103.00820312500001" y="0" viewBox="11.017823632605118 11.459999999999999 37.963698158539415 37.07000000000001" style="enable-background:new 0 0 60 60;" xml:space="preserve" height="47.79736328125" width="48.9496809383175" class="icon-cg-0" data-fill-palette-color="accent" id="cg-0"><path d="M48.85 34.1L35.82 11.92c-0.17-0.29-0.47-0.46-0.81-0.46s-0.64 0.18-0.81 0.46L30 19.08l-4.21-7.15c-0.17-0.29-0.47-0.46-0.81-0.46s-0.64 0.18-0.81 0.46L11.15 34.1c-0.22 0.37-0.16 0.83 0.14 1.13l13.03 13.03c0.18 0.18 0.42 0.27 0.66 0.27s0.48-0.09 0.66-0.27L30 43.91l4.35 4.35c0.18 0.18 0.42 0.27 0.66 0.27s0.48-0.09 0.66-0.27l13.03-13.03C49.01 34.93 49.07 34.46 48.85 34.1zM24.99 46.28L13.13 34.42l11.86-20.18 3.93 6.68L21.17 34.1c-0.22 0.37-0.16 0.83 0.14 1.13l7.36 7.36L24.99 46.28zM30 22.77l6.85 11.65L30 41.27l-6.85-6.85L30 22.77zM35.01 46.28l-3.69-3.69 7.36-7.36c0.3-0.3 0.36-0.77 0.14-1.13l-7.74-13.17 3.93-6.68 11.86 20.18L35.01 46.28z" fill="#94a6b8" data-fill-palette-color="accent"/></svg></g></svg></g></svg></g></svg></g></svg></g><g/></svg></g></svg></g><g><path d="M130.418 88.418A75.979 75.979 0 0 1 265.102 88.418L260.792 88.418A71.669 71.669 0 0 0 134.728 88.418L130.418 88.418M130.418 158.782A75.979 75.979 0 0 0 265.102 158.782L260.792 158.782A71.669 71.669 0 0 1 134.728 158.782L130.418 158.782" fill="#94a6b8" stroke="transparent" data-fill-palette-color="tertiary"/></g></svg></g><defs/></svg><rect width="395.52" height="247.2" fill="none" stroke="none" visibility="hidden"/></g></svg></g></svg>